<?xml version="1.0" encoding="UTF-8"?>
<svg width="49.945" height="24.007" xmlns="http://www.w3.org/2000/svg">
 <g>
  <title>Layer 1</title>
  <g id="miu">
   <g id="editor_list_view_hambuger_menu_glyph">
    <g id="svg_1">
     <path d="m1.137,0c-0.627,0 -1.137,0.428 -1.137,1.01v1.981c0,0.558 0.494,1.01 1.138,1.01h47.670998c0.628002,0 1.138,-0.428 1.138,-1.01v-1.981c0,-0.558 -0.493999,-1.01 -1.138,-1.01h-47.671998l0,0zm0,10.003c-0.627,0 -1.137,0.427999 -1.137,1.009999v1.98c0,0.557 0.494,1.01 1.138,1.01h47.670998c0.628002,0 1.138,-0.428 1.138,-1.01v-1.98c0,-0.558 -0.493999,-1.009999 -1.138,-1.009999h-47.671998l0,0zm0,10.001999c-0.627,0 -1.137,0.429001 -1.137,1.011002v1.980999c0,0.557001 0.494,1.01 1.138,1.01h47.670998c0.628002,0 1.138,-0.427999 1.138,-1.01v-1.980999c0,-0.558001 -0.493999,-1.011002 -1.138,-1.011002h-47.671998l0,0z" fill="#ffffff" id="path-1"/>
    </g>
    <g id="svg_2">
     <path d="m1.137,0c-0.627,0 -1.137,0.428 -1.137,1.01v1.981c0,0.558 0.494,1.01 1.138,1.01h47.670998c0.628002,0 1.138,-0.428 1.138,-1.01v-1.981c0,-0.558 -0.493999,-1.01 -1.138,-1.01h-47.671998l0,0zm0,10.003c-0.627,0 -1.137,0.427999 -1.137,1.009999v1.98c0,0.557 0.494,1.01 1.138,1.01h47.670998c0.628002,0 1.138,-0.428 1.138,-1.01v-1.98c0,-0.558 -0.493999,-1.009999 -1.138,-1.009999h-47.671998l0,0zm0,10.001999c-0.627,0 -1.137,0.429001 -1.137,1.011002v1.980999c0,0.557001 0.494,1.01 1.138,1.01h47.670998c0.628002,0 1.138,-0.427999 1.138,-1.01v-1.980999c0,-0.558001 -0.493999,-1.011002 -1.138,-1.011002h-47.671998l0,0z" fill="#ffffff" id="path-1_1_"/>
    </g>
   </g>
  </g>
  <line id="svg_3" y2="345.900002" x2="860" y1="345.900002" x1="898" stroke-width="5" stroke="#000000" fill="none"/>
  <path d="m801,347.899994c1,0 2.585815,-1.414215 4,0c0.707092,0.707092 2.769348,3.303223 4,4c3.587952,2.031464 18.010376,4.939453 24,6c16.02948,2.838257 30.132996,4.569519 34,6c4.194336,1.551605 6.412048,1.968536 10,4c1.230652,0.696777 1,2 2,3c1,1 1.486267,1.823761 2,4c0.68927,2.919739 1,6 1,8c0,4 2,7 2,11c0,3 0,4 0,5c0,3 0,4 0,6c0,2 1,5 1,7c0,1 0.38269,3.076111 0,4c-0.541199,1.306549 -0.851929,4.228363 -2,7c-1.082397,2.613129 -2.968567,5.412079 -5,9c-1.393555,2.461304 -3.486267,4.823761 -4,7c-0.459534,1.946503 0.948669,4.153961 0,7c-1.581116,4.743408 -3,6 -3,9l0,1l0,2" id="svg_4" stroke-width="5" stroke="#000000" fill="none"/>
  <path d="m874,384.899994c1,0 1.345886,1.261993 -1,4c-10.591614,12.361938 -16.753662,15.512726 -23,26c-3.432739,5.763367 -5,11 -5,14c0,3 -0.289795,6.042908 0,7c1.044861,3.450836 2.829712,3.282654 6,5c6.696411,3.627441 12,4 28,4c12,0 22.113708,1.146576 48,-2c12.07666,-1.467957 23.380249,-7.078583 34,-12c7.314941,-3.389893 13.282532,-6.984985 17,-13c1.662537,-2.690002 1,-5 1,-11c0,-3 -0.730408,-9.693634 -5,-16c-5.549927,-8.197449 -10.262207,-12.194885 -21,-18c-4.737183,-2.561035 -12.946716,-5.498749 -20,-6c-8.977356,-0.638 -16,0 -24,0c-7,0 -14.644592,1.570831 -24,7c-3.867981,2.24469 -10.786377,6.17865 -15,11c-3.837097,4.390503 -4,9 -4,13c0,3 -0.366577,6.022491 0,9c0.503784,4.092224 4,7 8,9c4,2 9.647522,2.972504 14,4c11.679016,2.75705 19,0 26,0c5,0 14,-1 22,-4l4,-2l2,-1l4,-4" id="svg_5" stroke-width="5" stroke="#000000" fill="#ffffff"/>
 </g>
</svg>